<?xml version="1.0" encoding="UTF-8"?><svg id="a" xmlns="http://www.w3.org/2000/svg" viewBox="0 0 215.75 61.71"><g><g><path d="M69.63,59.99c0,.58-.28,.88-.83,.88h-3.74c-.38,0-.69-.12-.93-.37-.24-.25-.36-.56-.36-.94v-1.75c-1.14,1.11-2.42,1.98-3.84,2.6-1.42,.63-2.92,.94-4.5,.94-1.78,0-3.48-.34-5.12-1.02-1.63-.68-3.08-1.63-4.33-2.84s-2.25-2.67-3-4.35c-.74-1.68-1.12-3.53-1.12-5.55,0-1.9,.36-3.68,1.07-5.36,.71-1.68,1.68-3.14,2.91-4.39,1.22-1.25,2.66-2.23,4.31-2.96s3.41-1.09,5.27-1.09,3.44,.3,4.83,.91c1.4,.61,2.67,1.56,3.81,2.86l.37-2.62c.04-.29,.12-.51,.24-.66,.12-.15,.32-.22,.61-.22h3.5c.55,0,.83,.29,.83,.88v25.07Zm-6.57-15.65c-.42-1.01-.98-1.9-1.71-2.66-.72-.76-1.57-1.36-2.54-1.8-.97-.44-2.01-.67-3.12-.67s-2.08,.21-3.03,.62c-.96,.42-1.79,1-2.5,1.74-.71,.74-1.28,1.63-1.7,2.65-.42,1.02-.62,2.14-.62,3.35s.2,2.26,.6,3.27c.4,1.01,.96,1.9,1.66,2.65s1.54,1.34,2.49,1.77c.96,.43,1.99,.65,3.1,.65s2.19-.22,3.17-.67c.98-.44,1.82-1.05,2.54-1.8,.71-.76,1.27-1.64,1.67-2.65,.4-1.01,.6-2.08,.6-3.22s-.21-2.21-.62-3.23Z" style="fill:#01679b;"/><path d="M81.07,59.97c0,.29-.13,.51-.38,.67-.26,.15-.53,.23-.82,.23h-3.87c-.6,0-.9-.3-.9-.9v-25.03c0-.6,.3-.9,.9-.9h2.84c.29,0,.55,.11,.79,.32,.23,.21,.39,.46,.46,.75l.35,3.02c.53-.76,1.11-1.41,1.76-1.95,.65-.54,1.33-.98,2.06-1.33,.72-.35,1.47-.6,2.23-.77,.77-.16,1.53-.24,2.31-.24,1.14,0,2.3,.21,3.49,.65,1.19,.43,2.27,1.1,3.24,2.02,.97,.92,1.76,2.09,2.38,3.52,.62,1.43,.93,3.14,.93,5.14v14.81c0,.58-.28,.88-.83,.88h-4.22c-.6,0-.9-.29-.9-.88v-14.61c0-.76-.15-1.49-.44-2.2-.29-.71-.7-1.33-1.21-1.88s-1.13-.98-1.85-1.31c-.71-.33-1.5-.49-2.34-.49-.7,0-1.4,.14-2.11,.42-.71,.28-1.34,.68-1.91,1.21s-1.04,1.18-1.4,1.95c-.37,.77-.55,1.63-.55,2.59v14.31Z" style="fill:#01679b;"/><path d="M110.97,34.22h3.11c.28,0,.5,.07,.66,.22s.24,.38,.24,.7v3.48c0,.29-.09,.52-.28,.68-.19,.16-.42,.24-.7,.24h-3.02v13.08c0,.42,.03,.82,.1,1.19,.07,.37,.18,.7,.35,.98,.17,.28,.4,.51,.69,.69,.29,.17,.67,.28,1.14,.31l.68,.04c.28,.01,.49,.07,.63,.16,.14,.09,.25,.2,.32,.33,.07,.12,.1,.25,.11,.37s.01,.22,.01,.29v2.98c0,.07-.01,.17-.03,.29s-.09,.24-.2,.35-.27,.21-.49,.29-.52,.12-.9,.12c-1.22,0-2.36-.18-3.39-.54-1.04-.36-1.93-.87-2.67-1.53-.74-.66-1.32-1.48-1.74-2.44-.42-.96-.62-2.05-.62-3.26v-13.72h-2.43c-.21,0-.41-.08-.61-.23s-.31-.38-.31-.69v-3.41c0-.34,.1-.58,.3-.74,.2-.16,.41-.24,.62-.24h2.43v-4.4c0-.29,.06-.51,.17-.66,.12-.15,.34-.26,.68-.35l4.29-1.25c.12-.03,.2-.04,.24-.04,.22,0,.38,.09,.48,.27,.1,.18,.15,.41,.15,.67v5.75Z" style="fill:#01679b;"/><path d="M145.82,59.99c0,.58-.28,.88-.83,.88h-3.74c-.38,0-.69-.12-.93-.37s-.36-.56-.36-.94v-1.75c-1.14,1.11-2.42,1.98-3.84,2.6-1.42,.63-2.92,.94-4.5,.94-1.78,0-3.49-.34-5.12-1.02-1.63-.68-3.08-1.63-4.33-2.84-1.25-1.22-2.25-2.67-3-4.35-.74-1.68-1.12-3.53-1.12-5.55,0-1.9,.36-3.68,1.07-5.36,.71-1.68,1.68-3.14,2.91-4.39,1.23-1.25,2.66-2.23,4.31-2.96,1.65-.73,3.4-1.09,5.27-1.09s3.43,.3,4.83,.91c1.4,.61,2.67,1.56,3.81,2.86l.37-2.62c.04-.29,.12-.51,.24-.66,.12-.15,.32-.22,.61-.22h3.5c.55,0,.83,.29,.83,.88v25.07Zm-6.57-15.65c-.42-1.01-.98-1.9-1.71-2.66-.72-.76-1.57-1.36-2.54-1.8-.97-.44-2.01-.67-3.12-.67s-2.07,.21-3.03,.62c-.96,.42-1.79,1-2.5,1.74-.71,.74-1.28,1.63-1.7,2.65-.42,1.02-.62,2.14-.62,3.35s.2,2.26,.6,3.27,.96,1.9,1.66,2.65c.71,.75,1.54,1.34,2.49,1.77,.96,.43,1.99,.65,3.09,.65s2.2-.22,3.17-.67c.98-.44,1.82-1.05,2.54-1.8,.71-.76,1.27-1.64,1.67-2.65,.4-1.01,.6-2.08,.6-3.22s-.21-2.21-.62-3.23Z" style="fill:#01679b;"/><path d="M170.19,53.45c.22,0,.38,.08,.48,.24l2.14,3.15c.31,.47,.26,.88-.15,1.23-.51,.44-1.1,.86-1.76,1.26-.66,.4-1.38,.75-2.14,1.06-.77,.31-1.56,.55-2.4,.72-.83,.18-1.66,.26-2.49,.26-1.9,0-3.68-.35-5.36-1.05-1.68-.7-3.14-1.67-4.4-2.91-1.25-1.24-2.25-2.7-2.97-4.39-.73-1.68-1.09-3.52-1.09-5.5s.37-3.72,1.09-5.39c.73-1.67,1.72-3.12,2.96-4.35,1.25-1.23,2.7-2.21,4.35-2.92,1.66-.71,3.41-1.07,5.26-1.07,1.84-.01,3.47,.26,4.9,.82s2.76,1.34,4,2.35c.19,.16,.29,.32,.31,.48,.02,.16-.02,.31-.11,.46l-2.14,3.3c-.12,.16-.29,.24-.5,.24-.17,0-.34-.05-.48-.15-1.01-.79-2-1.34-2.98-1.65s-1.95-.47-2.93-.47c-1.04,0-2.03,.21-2.99,.62-.96,.42-1.8,1-2.54,1.74-.74,.74-1.32,1.63-1.76,2.65s-.66,2.14-.66,3.37,.21,2.3,.62,3.33c.42,1.02,.98,1.9,1.71,2.65,.72,.74,1.56,1.32,2.53,1.74,.96,.42,2,.62,3.11,.62,.63,0,1.22-.07,1.78-.2,.56-.13,1.08-.31,1.56-.52s.93-.46,1.34-.72c.42-.26,.79-.52,1.13-.79,.16-.13,.35-.2,.57-.2Z" style="fill:#01679b;"/><path d="M203.33,59.99c0,.58-.28,.88-.83,.88h-3.74c-.38,0-.69-.12-.93-.37-.24-.25-.36-.56-.36-.94v-1.75c-1.14,1.11-2.42,1.98-3.84,2.6-1.42,.63-2.92,.94-4.5,.94-1.78,0-3.48-.34-5.12-1.02-1.63-.68-3.08-1.63-4.33-2.84s-2.25-2.67-3-4.35c-.74-1.68-1.12-3.53-1.12-5.55,0-1.9,.36-3.68,1.07-5.36,.71-1.68,1.68-3.14,2.91-4.39,1.22-1.25,2.66-2.23,4.31-2.96s3.41-1.09,5.27-1.09,3.44,.3,4.83,.91c1.4,.61,2.67,1.56,3.81,2.86l.37-2.62c.04-.29,.12-.51,.24-.66,.12-.15,.32-.22,.61-.22h3.5c.55,0,.83,.29,.83,.88v25.07Zm-6.57-15.65c-.42-1.01-.98-1.9-1.71-2.66-.72-.76-1.57-1.36-2.54-1.8-.97-.44-2.01-.67-3.12-.67s-2.08,.21-3.03,.62c-.96,.42-1.79,1-2.5,1.74-.71,.74-1.28,1.63-1.7,2.65-.42,1.02-.62,2.14-.62,3.35s.2,2.26,.6,3.27c.4,1.01,.96,1.9,1.66,2.65s1.54,1.34,2.49,1.77c.96,.43,1.99,.65,3.1,.65s2.19-.22,3.17-.67c.98-.44,1.82-1.05,2.54-1.8,.71-.76,1.27-1.64,1.67-2.65,.4-1.01,.6-2.08,.6-3.22s-.21-2.21-.62-3.23Z" style="fill:#01679b;"/></g><path d="M25.14,61.12c-.27,.08-.53,.16-.8,.21,.27-.05,.54-.13,.8-.21Z" style="fill:#35729f;"/><path d="M22.58,61.46c-.21-.01-.42-.04-.62-.07,.21,.03,.41,.05,.62,.07Z" style="fill:#35729f;"/><g><path d="M55.24,0h-11.19c-2.3,0-4.39,1.35-5.34,3.45l-.28,.63s0,0,0,0l-13.85,30.87,7.52,16.62,15.78-35.16L55.24,0Z" style="fill:#63b249;"/><path d="M23.54,61.7s.01,0,.02,0c-.04,0-.08,0-.11,0,.03,0,.06,0,.09,0Z" style="fill:#76af55;"/><path d="M29.3,52.01l-6.21-13.73-6.21,13.85c-.85,1.93-.75,4.11,.2,5.91,0,0,.01,.02,.02,.03,.31,.59,.72,1.15,1.21,1.64h0c.26,.26,.54,.49,.83,.7,.29,.21,.6,.4,.93,.56,.13,.07,.26,.14,.39,.2,.11,.05,.23,.08,.35,.13,.18,.07,.37,.13,.55,.18,.11,.03,.23,.05,.35,.08,.2,.04,.4,.08,.61,.1,.11,.01,.21,.03,.32,.03,.27,.02,.55,.02,.83,.01,.04,0,.08,0,.11,0,.29-.02,.57-.06,.85-.11,.03,0,.07-.02,.1-.02,.24-.05,.48-.11,.71-.18,.06-.02,.12-.05,.18-.07,.21-.07,.42-.15,.61-.24,.02-.01,.05-.02,.07-.04,.29-.14,.56-.31,.83-.48,.1-.06,.19-.13,.29-.2,.2-.15,.39-.32,.58-.49,.45-.42,.84-.9,1.16-1.43,.05-.08,.09-.16,.13-.24,1.01-1.81,1.22-4.08,.24-6.19Z" style="fill:#173c4f;"/><path d="M17.09,58.07s-.01-.02-.02-.03c0,0,.01,.02,.02,.03Z" style="fill:#76af55;"/><path d="M16.87,52.13l6.21-13.85v-.02s-1.42-3.12-1.42-3.12l-1.65-3.64-1.77-3.9-1.46-3.24s0,0,0,0l-.3-.67c-.91-2-2.9-3.29-5.1-3.29H0l4.39,9.71s0,0,0,0l12.51,27.65c.05,.1,.11,.19,.16,.29-.94-1.81-1.05-3.98-.2-5.91Z" style="fill:#01679b;"/></g></g><text transform="translate(206.92 37.08)" style="fill:#01679b; font-family:Cocogoose-Light, Cocogoose; font-size:8px;"><tspan x="0" y="0">®</tspan></text></svg>